#!OML:ASF H:\ManfredObstacles\Project 1\Capture day 2\Session 1\male.ASF
:FULLY-SPECIFIED
:DEGREES
197
root 2.11085 17.3689 -20.0282 -166.547 -5.20104 174.32
lowerback -4.85455 -5.09798 -6.11393
upperback -0.660427 -6.54536 -0.920479
thorax 2.59725 -3.35744 1.9562
lowerneck -34.65 2.86192 6.08074
upperneck 40.9163 5.30385 -3.52325
head 24.7019 3.16469 -1.18406
rclavicle -5.64548e-014 -2.24627e-014
rhumerus -71.4631 10.8162 -82.7008
rradius 80.9405
rwrist 5.04174
rhand -8.65404 -2.36397
rfingers 7.12502
rthumb 17.2794 -31.6158
lclavicle -5.64548e-014 -2.24627e-014
lhumerus -53.7477 -33.5385 101.661
lradius 93.0662
lwrist -22.7911
lhand -15.3124 4.01205
lfingers 7.12502
lthumb 10.8634 33.7111
rfemur -40.6021 1.13881 14.2113
rtibia 41.7994
rfoot 11.2131 -14.9746
rtoes -21.2963
lfemur 2.35773 -3.34865 -23.9856
ltibia 30.7895
lfoot 32.3777 6.09163
ltoes 9.78802
198
root 2.12639 17.3288 -20.2746 -166.799 -4.64994 174.235
lowerback -4.82087 -4.93054 -6.12093
upperback -0.587144 -6.31962 -0.966751
thorax 2.63148 -3.24666 1.93254
lowerneck -34.6218 2.91949 6.15757
upperneck 40.8419 5.43759 -3.72711
head 24.6584 3.1905 -1.27645
rclavicle 8.24956e-015 2.98177e-015
rhumerus -71.2169 10.9089 -82.6826
rradius 81.2562
rwrist 4.92851
rhand -8.67096 -2.37171
rfingers 7.12502
rthumb 17.2631 -31.625
lclavicle 8.24956e-015 2.98177e-015
lhumerus -54.7702 -32.7258 101.636
lradius 93.4792
lwrist -22.8275
lhand -15.2137 3.88351
lfingers 7.12502
lthumb 10.9586 33.5775
rfemur -39.5858 2.02612 14.0437
rtibia 41.44
rfoot 11.8365 -14.9864
rtoes -21.4425
lfemur 2.46188 -2.88157 -24.2979
ltibia 32.0374
lfoot 30.7891 6.01188
ltoes 9.20888
199
root 2.14177 17.2762 -20.5192 -167.046 -4.12565 174.208
lowerback -4.78853 -4.75138 -6.07053
upperback -0.517288 -6.08034 -0.994337
thorax 2.65822 -3.12788 1.89791
lowerneck -34.5842 2.9642 6.23093
upperneck 40.7498 5.55265 -3.9411
head 24.5943 3.20714 -1.37976
rclavicle 1.18128e-013 6.16232e-015
rhumerus -70.9114 10.9986 -82.7026
rradius 81.5573
rwrist 4.84394
rhand -8.68093 -2.43419
rfingers 7.12502
rthumb 17.2536 -31.6883
lclavicle 1.18128e-013 6.16232e-015
lhumerus -55.737 -31.8285 101.561
lradius 93.8212
lwrist -22.9157
lhand -15.1355 3.79219
lfingers 7.12502
lthumb 11.0341 33.4822
rfemur -38.5813 2.74214 14.0394
rtibia 41.2365
rfoot 12.6314 -14.7082
rtoes -21.6408
lfemur 2.41864 -2.42722 -24.5253
ltibia 33.5172
lfoot 29.2798 5.75755
ltoes 8.59695
200
root 2.15712 17.2112 -20.762 -167.275 -3.62114 174.236
lowerback -4.75983 -4.55915 -5.96935
upperback -0.460235 -5.82582 -0.999089
thorax 2.67044 -3.00002 1.86044
lowerneck -34.514 2.98061 6.27034
upperneck 40.6719 5.6514 -4.14417
head 24.5274 3.21731 -1.47443
rclavicle 1.71949e-014 -4.77083e-015
rhumerus -70.5537 11.0977 -82.7525
rradius 81.8369
rwrist 4.76895
rhand -8.68747 -2.51602
rfingers 7.12502
rthumb 17.2473 -31.7707
lclavicle 1.71949e-014 -4.77083e-015
lhumerus -56.6584 -30.8477 101.452
lradius 94.0922
lwrist -23.0233
lhand -15.0787 3.75105
lfingers 7.12502
lthumb 11.0888 33.4381
rfemur -37.5965 3.30029 14.1767
rtibia 41.1699
rfoot 13.4612 -14.2558
rtoes -21.8821
lfemur 2.21936 -1.97906 -24.6679
ltibia 35.21
lfoot 27.8631 5.37499
ltoes 7.9709
201
root 2.17218 17.1341 -21.0025 -167.476 -3.14691 174.308
lowerback -4.75186 -4.35156 -5.82051
upperback -0.410221 -5.55161 -0.991074
thorax 2.683 -2.8614 1.80998
lowerneck -34.41 2.9675 6.27674
upperneck 40.5773 5.71595 -4.33418
head 24.425 3.2121 -1.56541
rclavicle -2.35311e-014 5.96354e-016
rhumerus -70.1515 11.1659 -82.8335
rradius 82.1187
rwrist 4.73765
rhand -8.67744 -2.62652
rfingers 7.12502
rthumb 17.2569 -31.8803
lclavicle -2.35311e-014 5.96354e-016
lhumerus -57.5255 -29.8313 101.29
lradius 94.2975
lwrist -23.1505
lhand -15.022 3.7611
lfingers 7.12502
lthumb 11.1435 33.4452
rfemur -36.6188 3.6583 14.4482
rtibia 41.233
rfoot 12.1139 -13.8586
rtoes -27.2396
lfemur 1.85651 -1.53517 -24.7302
ltibia 37.1008
lfoot 26.5396 4.91935
ltoes 7.32047
202
root 2.18695 17.0455 -21.2404 -167.642 -2.70077 174.399
lowerback -4.76095 -4.13682 -5.65008
upperback -0.364945 -5.26798 -0.976608
thorax 2.69933 -2.71771 1.75357
lowerneck -34.3052 2.93175 6.24741
upperneck 40.4956 5.75963 -4.49853
head 24.3282 3.19875 -1.64048
rclavicle -9.0447e-015 -1.98785e-015
rhumerus -69.6713 11.2338 -82.9593
rradius 82.3762
rwrist 4.69635
rhand -8.67673 -2.73424
rfingers 7.12502
rthumb 17.2576 -31.988
lclavicle -9.0447e-015 -1.98785e-015
lhumerus -58.3271 -28.7689 101.064
lradius 94.4409
lwrist -23.2819
lhand -14.9818 3.83451
lfingers 7.12502
lthumb 11.1823 33.5165
rfemur -35.6512 3.80443 14.8115
rtibia 41.4286
rfoot 10.5355 -13.3679
rtoes -31.1812
lfemur 1.33233 -1.09198 -24.7371
ltibia 39.1716
lfoot 25.2999 4.47418
ltoes 6.69238
203
root 2.20168 16.9466 -21.4755 -167.773 -2.29503 174.512
lowerback -4.77873 -3.9197 -5.46076
upperback -0.321572 -4.98158 -0.952003
thorax 2.71902 -2.57225 1.69647
lowerneck -34.2272 2.86794 6.16736
upperneck 40.4491 5.77626 -4.61704
head 24.2638 3.17608 -1.68736
rclavicle -2.28602e-015 3.57812e-015
rhumerus -69.1023 11.3041 -83.1351
rradius 82.5976
rwrist 4.63974
rhand -8.71458 -2.80524
rfingers 7.12502
rthumb 17.2212 -32.0622
lclavicle -2.28602e-015 3.57812e-015
lhumerus -59.0604 -27.6725 100.775
lradius 94.5215
lwrist -23.4054
lhand -14.9546 3.97125
lfingers 7.12502
lthumb 11.2085 33.6518
rfemur -34.6791 3.80696 15.2326
rtibia 41.7569
rfoot 8.30881 -12.9039
rtoes -34.7398
lfemur 0.656313 -0.658533 -24.6801
ltibia 41.4028
lfoot 24.1376 4.12011
ltoes 6.14443
